<svg width="83" height="80" viewBox="0 0 83 80" fill="none" xmlns="http://www.w3.org/2000/svg">
<path d="M80.8166 12.933L42.5092 0.163841C41.8539 -0.0546136 41.1454 -0.0546136 40.4901 0.163841L2.18272 12.933C1.54708 13.1449 0.994224 13.5514 0.602477 14.095C0.210729 14.6385 -4.9649e-05 15.2916 8.77222e-09 15.9616V47.8844C8.77222e-09 48.7311 0.336328 49.5431 0.934997 50.1417C1.53367 50.7404 2.34563 51.0767 3.19228 51.0767C4.03893 51.0767 4.85089 50.7404 5.44956 50.1417C6.04823 49.5431 6.38456 48.7311 6.38456 47.8844V20.3909L19.7881 24.8561C16.227 30.6094 15.0946 37.5408 16.6395 44.1283C18.1844 50.7159 22.2805 56.421 28.0282 59.9912C20.8456 62.8083 14.6366 67.904 10.0956 74.8712C9.85942 75.2222 9.69538 75.6166 9.613 76.0316C9.53062 76.4465 9.53154 76.8737 9.61571 77.2883C9.69988 77.7029 9.86563 78.0967 10.1033 78.4467C10.341 78.7966 10.6459 79.0959 11.0002 79.327C11.3546 79.5581 11.7513 79.7165 12.1674 79.793C12.5835 79.8694 13.0106 79.8624 13.424 79.7723C13.8374 79.6822 14.2287 79.5108 14.5752 79.2681C14.9218 79.0255 15.2166 78.7164 15.4427 78.3587C21.4561 69.133 30.9531 63.8458 41.4996 63.8458C52.0461 63.8458 61.5432 69.133 67.5566 78.3587C68.0248 79.0546 68.7481 79.5383 69.5701 79.7052C70.392 79.872 71.2467 79.7087 71.9492 79.2505C72.6517 78.7923 73.1456 78.076 73.3243 77.2565C73.5029 76.437 73.3518 75.5802 72.9037 74.8712C68.3627 67.904 62.1298 62.8083 54.9711 59.9912C60.7133 56.4212 64.8054 50.7197 66.3501 44.137C67.8948 37.5543 66.766 30.6277 63.2111 24.8761L80.8166 19.0103C81.4523 18.7985 82.0053 18.392 82.3972 17.8484C82.7891 17.3048 83 16.6517 83 15.9816C83 15.3115 82.7891 14.6583 82.3972 14.1148C82.0053 13.5712 81.4523 13.1647 80.8166 12.9529V12.933ZM60.6533 38.3076C60.6542 41.3357 59.9371 44.3209 58.5608 47.0181C57.1846 49.7154 55.1885 52.048 52.7362 53.8244C50.2839 55.6009 47.4454 56.7706 44.4535 57.2376C41.4617 57.7046 38.4017 57.4555 35.5247 56.5109C32.6477 55.5663 30.0357 53.953 27.9029 51.8035C25.7701 49.6539 24.1774 47.0293 23.2554 44.1449C22.3334 41.2606 22.1084 38.1988 22.5989 35.2107C23.0893 32.2225 24.2813 29.3933 26.0769 26.9551L40.4901 31.7435C41.1454 31.9619 41.8539 31.9619 42.5092 31.7435L56.9223 26.9551C59.3474 30.2432 60.655 34.2219 60.6533 38.3076Z" fill="#D25D09"/>
</svg>
